<svg width="203" height="243" viewBox="0 0 203 243" fill="none" xmlns="http://www.w3.org/2000/svg">
<path fill-rule="evenodd" clip-rule="evenodd" d="M30.625 243H202.75V0H30.625C13.8479 0 0.25 13.5979 0.25 30.375V212.625C0.25 229.402 13.8479 243 30.625 243ZM35.6369 202.5H182.5V222.75H35.6369C21.715 222.75 21.715 202.5 35.6369 202.5ZM63.8207 87.6485H55.2549C53.2843 84.2427 49.6052 81.9532 45.3906 81.9532C39.103 81.9532 34 87.0562 34 93.3438C34 99.6314 39.103 104.734 45.3906 104.734C49.6052 104.734 53.2843 102.445 55.2549 99.0391H68.1719C71.2132 99.0049 72.9275 97.4273 73.6679 94.8416C75.8378 87.2384 84.694 54.4106 84.694 54.4106C85.629 58.6139 86.6334 63.1279 87.6742 67.8058C93.239 92.8174 99.8464 122.514 102.48 134.447C103.215 137.779 106.194 138.883 108.039 138.906C109.884 138.929 112.692 137.978 113.564 134.589C115.967 125.294 126.378 83.3371 126.378 83.3371L131.23 95.4567C132.107 97.3932 133.651 99.0619 136.516 99.0391C138.851 99.022 144.073 99.0163 149.421 99.022C151.392 102.434 155.077 104.734 159.297 104.734C165.585 104.734 170.688 99.6314 170.688 93.3438C170.688 87.0562 165.585 81.9532 159.297 81.9532C155.082 81.9532 151.403 84.2427 149.433 87.6485H140.371C140.37 87.6444 140.258 87.3611 140.059 86.8573C138.592 83.1402 132.385 67.4165 130.82 63.1985C130.051 61.1254 127.768 59.1719 125.125 59.1719C122.482 59.1719 120.005 61.0628 119.43 63.4833C117.459 71.7415 108.364 108.425 108.364 108.425C108.364 108.425 93.9603 43.2592 90.6513 29.2146C89.9621 26.2758 87.0746 25.0057 85.2578 25C83.441 24.9943 80.6503 25.7518 79.7618 29.1975C77.0338 39.7908 63.8207 87.6485 63.8207 87.6485Z" fill="#E30653"/>
</svg>
