<svg width="50" height="50" viewBox="0 0 50 50" fill="none" xmlns="http://www.w3.org/2000/svg">
<path d="M14.5833 4.16675C6.52917 4.16675 0 10.6959 0 18.7501V31.2501C0 39.3042 6.52918 45.8334 14.5833 45.8334H27.0833C28.2339 45.8334 29.1667 44.9007 29.1667 43.7501V43.7501C29.1667 42.5995 28.2339 41.6668 27.0833 41.6668H16.6667C9.76311 41.6668 4.16667 36.0703 4.16667 29.1668V20.8334C4.16667 13.9299 9.76311 8.33342 16.6667 8.33342H27.0833C28.2339 8.33342 29.1667 7.40067 29.1667 6.25008V6.25008C29.1667 5.09949 28.2339 4.16675 27.0833 4.16675H14.5833Z" fill="black"/>
<path d="M33.3334 12.6205V19.8334C33.3334 20.3857 32.8856 20.8334 32.3334 20.8334H17.6667C17.1144 20.8334 16.6667 21.2811 16.6667 21.8334V28.1667C16.6667 28.719 17.1144 29.1667 17.6667 29.1667H32.3334C32.8856 29.1667 33.3334 29.6145 33.3334 30.1667V37.3796C33.3334 38.2388 34.3453 38.698 34.9919 38.1322L49.1399 25.7527C49.5953 25.3542 49.5953 24.6459 49.1399 24.2475L34.9919 11.8679C34.3453 11.3022 33.3334 11.7614 33.3334 12.6205Z" fill="black"/>
</svg>
