<svg width="243" height="243" viewBox="0 0 243 243" fill="none" xmlns="http://www.w3.org/2000/svg">
<path d="M114.068 70.875L243 44.2969L242.919 43.8716L232.713 0L18.3769 42.4845C7.70513 44.6006 0 53.9662 0 64.8304V212.625C0 229.402 13.5979 243 30.375 243H212.625C229.402 243 243 229.402 243 212.625V70.875H114.068ZM203.614 17.7896L227.873 34.0301L197.559 40.0545L173.279 23.8039L203.614 17.7896ZM143.896 29.6258L168.197 45.8865L137.882 51.9109L113.572 35.64L143.896 29.6258ZM84.1185 41.4821L108.449 57.7631L78.1448 63.7875L53.784 47.4863L84.1185 41.4821ZM58.2491 101.25L78.894 81H109.816L89.1709 101.25H58.2491ZM101.25 202.5V131.625L162 166.192L101.25 202.5ZM150.123 101.25H119.202L139.846 81H170.768L150.123 101.25ZM210.995 101.25H180.073L200.718 81H231.64L210.995 101.25Z" fill="#E30653"/>
</svg>
