<svg width="203" height="243" viewBox="0 0 203 243" fill="none" xmlns="http://www.w3.org/2000/svg">
<path fill-rule="evenodd" clip-rule="evenodd" d="M30.625 243H202.75V0H30.625C13.8479 0 0.25 13.5979 0.25 30.375V212.625C0.25 229.402 13.8479 243 30.625 243ZM35.6369 202.5H182.5V222.75H35.6369C21.715 222.75 21.715 202.5 35.6369 202.5ZM90.5389 77.6044V40.1875H40V90.8125H60.25C60.25 102.006 52.3373 115.781 40.0253 120.423L45.0625 131.312C71.6507 126.053 90.5389 106.481 90.5389 77.6044ZM161.5 77.6044V40.1875H110.961V90.8125H131.125C131.125 102.006 123.212 115.781 110.895 120.423L115.938 131.312C142.526 126.058 161.5 106.481 161.5 77.6044Z" fill="#E30653"/>
</svg>
